<mxfile host="app.diagrams.net" agent="Mozilla/5.0 (Windows NT 10.0; Win64; x64) AppleWebKit/537.36 (KHTML, like Gecko) Chrome/140.0.0.0 Safari/537.36" version="28.2.5">
  <diagram id="tailscale-network" name="Network">
    <mxGraphModel dx="1426" dy="1912" grid="1" gridSize="10" guides="1" tooltips="1" connect="1" arrows="1" fold="1" page="1" pageScale="1" pageWidth="827" pageHeight="1169" math="0" shadow="0">
      <root>
        <mxCell id="0" />
        <mxCell id="1" parent="0" />
        <mxCell id="vWraarcU9UmV3LePMpCT-22" value="" style="rounded=1;whiteSpace=wrap;html=1;fillColor=none;" vertex="1" parent="1">
          <mxGeometry x="50" y="51.5" width="210" height="400" as="geometry" />
        </mxCell>
        <mxCell id="vWraarcU9UmV3LePMpCT-2" value="" style="sketch=0;aspect=fixed;pointerEvents=1;shadow=0;dashed=0;html=1;strokeColor=none;labelPosition=center;verticalLabelPosition=bottom;verticalAlign=top;align=center;fillColor=#00188D;shape=mxgraph.mscae.enterprise.internet" vertex="1" parent="1">
          <mxGeometry x="325" y="213.5" width="50" height="31" as="geometry" />
        </mxCell>
        <mxCell id="vWraarcU9UmV3LePMpCT-3" value="" style="sketch=0;aspect=fixed;pointerEvents=1;shadow=0;dashed=0;html=1;strokeColor=none;labelPosition=center;verticalLabelPosition=bottom;verticalAlign=top;align=center;fillColor=#00188D;shape=mxgraph.azure.laptop" vertex="1" parent="1">
          <mxGeometry x="500" y="270" width="60.83" height="36.5" as="geometry" />
        </mxCell>
        <mxCell id="vWraarcU9UmV3LePMpCT-4" value="" style="sketch=0;aspect=fixed;pointerEvents=1;shadow=0;dashed=0;html=1;strokeColor=none;labelPosition=center;verticalLabelPosition=bottom;verticalAlign=top;align=center;fillColor=#00188D;shape=mxgraph.azure.server_rack" vertex="1" parent="1">
          <mxGeometry x="130" y="213.5" width="50" height="50" as="geometry" />
        </mxCell>
        <mxCell id="vWraarcU9UmV3LePMpCT-5" value="PVE" style="text;html=1;align=center;verticalAlign=middle;resizable=0;points=[];autosize=1;strokeColor=none;fillColor=none;" vertex="1" parent="1">
          <mxGeometry x="130" y="258" width="50" height="30" as="geometry" />
        </mxCell>
        <mxCell id="vWraarcU9UmV3LePMpCT-6" value="Laptop" style="text;html=1;align=center;verticalAlign=middle;resizable=0;points=[];autosize=1;strokeColor=none;fillColor=none;" vertex="1" parent="1">
          <mxGeometry x="500" y="300" width="60" height="30" as="geometry" />
        </mxCell>
        <mxCell id="vWraarcU9UmV3LePMpCT-7" value="Tailscale" style="text;html=1;align=center;verticalAlign=middle;resizable=0;points=[];autosize=1;strokeColor=none;fillColor=none;" vertex="1" parent="1">
          <mxGeometry x="315" y="236.5" width="70" height="30" as="geometry" />
        </mxCell>
        <mxCell id="vWraarcU9UmV3LePMpCT-8" value="" style="sketch=0;aspect=fixed;pointerEvents=1;shadow=0;dashed=0;html=1;strokeColor=none;labelPosition=center;verticalLabelPosition=bottom;verticalAlign=top;align=center;fillColor=#00188D;shape=mxgraph.mscae.enterprise.workstation_client" vertex="1" parent="1">
          <mxGeometry x="515" y="90" width="50" height="50" as="geometry" />
        </mxCell>
        <mxCell id="vWraarcU9UmV3LePMpCT-9" value="" style="sketch=0;aspect=fixed;pointerEvents=1;shadow=0;dashed=0;html=1;strokeColor=none;labelPosition=center;verticalLabelPosition=bottom;verticalAlign=top;align=center;fillColor=#00188D;shape=mxgraph.mscae.enterprise.workstation_client" vertex="1" parent="1">
          <mxGeometry x="130" y="100" width="50" height="50" as="geometry" />
        </mxCell>
        <mxCell id="vWraarcU9UmV3LePMpCT-10" value="" style="sketch=0;aspect=fixed;pointerEvents=1;shadow=0;dashed=0;html=1;strokeColor=none;labelPosition=center;verticalLabelPosition=bottom;verticalAlign=top;align=center;fillColor=#00188D;shape=mxgraph.azure.mobile" vertex="1" parent="1">
          <mxGeometry x="445" y="358" width="35" height="50" as="geometry" />
        </mxCell>
        <mxCell id="vWraarcU9UmV3LePMpCT-11" value="AI-Rig" style="text;html=1;align=center;verticalAlign=middle;resizable=0;points=[];autosize=1;strokeColor=none;fillColor=none;" vertex="1" parent="1">
          <mxGeometry x="125" y="150" width="60" height="30" as="geometry" />
        </mxCell>
        <mxCell id="vWraarcU9UmV3LePMpCT-12" value="Remote PC (Plex)" style="text;html=1;align=center;verticalAlign=middle;resizable=0;points=[];autosize=1;strokeColor=none;fillColor=none;" vertex="1" parent="1">
          <mxGeometry x="480" y="140" width="120" height="30" as="geometry" />
        </mxCell>
        <mxCell id="vWraarcU9UmV3LePMpCT-13" value="Phone" style="text;html=1;align=center;verticalAlign=middle;resizable=0;points=[];autosize=1;strokeColor=none;fillColor=none;" vertex="1" parent="1">
          <mxGeometry x="432.5" y="408" width="60" height="30" as="geometry" />
        </mxCell>
        <mxCell id="vWraarcU9UmV3LePMpCT-14" value="" style="sketch=0;aspect=fixed;pointerEvents=1;shadow=0;dashed=0;html=1;strokeColor=none;labelPosition=center;verticalLabelPosition=bottom;verticalAlign=top;align=center;fillColor=#00188D;shape=mxgraph.mscae.enterprise.server_generic" vertex="1" parent="1">
          <mxGeometry x="143" y="320" width="24" height="50" as="geometry" />
        </mxCell>
        <mxCell id="vWraarcU9UmV3LePMpCT-15" value="Synology NAS (Plex)" style="text;html=1;align=center;verticalAlign=middle;resizable=0;points=[];autosize=1;strokeColor=none;fillColor=none;" vertex="1" parent="1">
          <mxGeometry x="80" y="368" width="140" height="30" as="geometry" />
        </mxCell>
        <mxCell id="vWraarcU9UmV3LePMpCT-16" value="" style="endArrow=none;html=1;rounded=0;" edge="1" parent="1" source="vWraarcU9UmV3LePMpCT-2" target="vWraarcU9UmV3LePMpCT-3">
          <mxGeometry width="50" height="50" relative="1" as="geometry">
            <mxPoint x="390" y="310" as="sourcePoint" />
            <mxPoint x="440" y="260" as="targetPoint" />
          </mxGeometry>
        </mxCell>
        <mxCell id="vWraarcU9UmV3LePMpCT-17" value="" style="endArrow=none;html=1;rounded=0;entryX=0.203;entryY=0.6;entryDx=0;entryDy=0;entryPerimeter=0;" edge="1" parent="1" source="vWraarcU9UmV3LePMpCT-2" target="vWraarcU9UmV3LePMpCT-10">
          <mxGeometry width="50" height="50" relative="1" as="geometry">
            <mxPoint x="410" y="348" as="sourcePoint" />
            <mxPoint x="545" y="340" as="targetPoint" />
          </mxGeometry>
        </mxCell>
        <mxCell id="vWraarcU9UmV3LePMpCT-18" value="" style="endArrow=none;html=1;rounded=0;entryX=0.16;entryY=0.56;entryDx=0;entryDy=0;entryPerimeter=0;" edge="1" parent="1" source="vWraarcU9UmV3LePMpCT-2" target="vWraarcU9UmV3LePMpCT-8">
          <mxGeometry width="50" height="50" relative="1" as="geometry">
            <mxPoint x="380" y="138" as="sourcePoint" />
            <mxPoint x="515" y="130" as="targetPoint" />
          </mxGeometry>
        </mxCell>
        <mxCell id="vWraarcU9UmV3LePMpCT-19" value="" style="endArrow=none;html=1;rounded=0;exitX=0.48;exitY=0.78;exitDx=0;exitDy=0;exitPerimeter=0;" edge="1" parent="1" source="vWraarcU9UmV3LePMpCT-9" target="vWraarcU9UmV3LePMpCT-2">
          <mxGeometry width="50" height="50" relative="1" as="geometry">
            <mxPoint x="230" y="148" as="sourcePoint" />
            <mxPoint x="365" y="140" as="targetPoint" />
          </mxGeometry>
        </mxCell>
        <mxCell id="vWraarcU9UmV3LePMpCT-20" value="" style="endArrow=none;html=1;rounded=0;" edge="1" parent="1" source="vWraarcU9UmV3LePMpCT-4" target="vWraarcU9UmV3LePMpCT-2">
          <mxGeometry width="50" height="50" relative="1" as="geometry">
            <mxPoint x="230" y="238" as="sourcePoint" />
            <mxPoint x="320" y="230" as="targetPoint" />
          </mxGeometry>
        </mxCell>
        <mxCell id="vWraarcU9UmV3LePMpCT-21" value="" style="endArrow=none;html=1;rounded=0;" edge="1" parent="1" source="vWraarcU9UmV3LePMpCT-14" target="vWraarcU9UmV3LePMpCT-2">
          <mxGeometry width="50" height="50" relative="1" as="geometry">
            <mxPoint x="230" y="328" as="sourcePoint" />
            <mxPoint x="365" y="320" as="targetPoint" />
          </mxGeometry>
        </mxCell>
        <mxCell id="vWraarcU9UmV3LePMpCT-24" value="Local Network" style="text;html=1;align=center;verticalAlign=middle;resizable=0;points=[];autosize=1;strokeColor=none;fillColor=none;" vertex="1" parent="1">
          <mxGeometry x="105" y="21.5" width="100" height="30" as="geometry" />
        </mxCell>
        <mxCell id="vWraarcU9UmV3LePMpCT-25" value="" style="rounded=1;whiteSpace=wrap;html=1;fillColor=none;" vertex="1" parent="1">
          <mxGeometry x="435" y="29" width="210" height="171" as="geometry" />
        </mxCell>
        <mxCell id="vWraarcU9UmV3LePMpCT-26" value="Remote Network" style="text;html=1;align=center;verticalAlign=middle;resizable=0;points=[];autosize=1;strokeColor=none;fillColor=none;" vertex="1" parent="1">
          <mxGeometry x="485" y="-2" width="110" height="30" as="geometry" />
        </mxCell>
        <mxCell id="vWraarcU9UmV3LePMpCT-31" value="" style="rounded=0;whiteSpace=wrap;html=1;fillColor=none;" vertex="1" parent="1">
          <mxGeometry x="10" y="-10" width="680" height="520" as="geometry" />
        </mxCell>
      </root>
    </mxGraphModel>
  </diagram>
</mxfile>
